<svg width="14" height="12" viewBox="0 0 14 12" fill="none" xmlns="http://www.w3.org/2000/svg">
<path d="M10.3333 1C9.89131 1 9.46738 1.17559 9.15482 1.48816C8.84226 1.80072 8.66667 2.22464 8.66667 2.66667V9.33333C8.66667 9.77536 8.84226 10.1993 9.15482 10.5118C9.46738 10.8244 9.89131 11 10.3333 11C10.7754 11 11.1993 10.8244 11.5118 10.5118C11.8244 10.1993 12 9.77536 12 9.33333C12 8.89131 11.8244 8.46738 11.5118 8.15482C11.1993 7.84226 10.7754 7.66667 10.3333 7.66667H3.66667C3.22464 7.66667 2.80072 7.84226 2.48816 8.15482C2.17559 8.46738 2 8.89131 2 9.33333C2 9.77536 2.17559 10.1993 2.48816 10.5118C2.80072 10.8244 3.22464 11 3.66667 11C4.10869 11 4.53262 10.8244 4.84518 10.5118C5.15774 10.1993 5.33333 9.77536 5.33333 9.33333V2.66667C5.33333 2.22464 5.15774 1.80072 4.84518 1.48816C4.53262 1.17559 4.10869 1 3.66667 1C3.22464 1 2.80072 1.17559 2.48816 1.48816C2.17559 1.80072 2 2.22464 2 2.66667C2 3.10869 2.17559 3.53262 2.48816 3.84518C2.80072 4.15774 3.22464 4.33333 3.66667 4.33333H10.3333C10.7754 4.33333 11.1993 4.15774 11.5118 3.84518C11.8244 3.53262 12 3.10869 12 2.66667C12 2.22464 11.8244 1.80072 11.5118 1.48816C11.1993 1.17559 10.7754 1 10.3333 1Z" stroke="white" stroke-linecap="round" stroke-linejoin="round"/>
</svg>
