<svg width="8" height="6" viewBox="0 0 8 6" fill="none" xmlns="http://www.w3.org/2000/svg">
<g clip-path="url(#clip0)">
<path d="M7.49209 0.737705C7.60499 0.737705 7.69735 0.64918 7.69735 0.540984V0.196721C7.69735 0.0885246 7.60499 0 7.49209 0H4.82367C4.71078 0 4.61841 0.0885246 4.61841 0.196721V0.540984C4.61841 0.64918 4.71078 0.737705 4.82367 0.737705H7.49209Z" fill="white"/>
<path d="M2.12447 0H0.39C0.174474 0 0 0.167213 0 0.37377C0 0.580328 0.174474 0.747541 0.39 0.747541H2.09368L2.07316 0.718033C2.09368 0.747541 2.08342 0.747541 2.12447 0.747541H2.09368L4.96737 5.56721C5.10079 5.77377 5.33684 5.90164 5.58316 5.91148H7.31763C7.53316 5.91148 7.70763 5.74426 7.70763 5.53771C7.70763 5.33115 7.53316 5.16394 7.31763 5.16394H5.61395L5.63447 5.19344C5.61395 5.16394 5.62421 5.16394 5.58316 5.16394H5.61395L2.74026 0.344262C2.60684 0.137705 2.37079 0.00983607 2.12447 0Z" fill="white"/>
</g>
<defs>
<clipPath id="clip0">
<rect width="7.8" height="6" fill="white"/>
</clipPath>
</defs>
</svg>
