<svg width="17" height="15" viewBox="0 0 17 15" fill="none" xmlns="http://www.w3.org/2000/svg">
<path d="M10.7901 4.12976H11.3081L12.7848 2.51007L12.8572 1.82215C10.1089 -0.83892 5.91444 -0.551448 3.48835 2.46309C2.81426 3.29978 2.32578 4.29643 2.05859 5.37473C2.22278 5.3009 2.40532 5.2886 2.57665 5.34117L5.52998 4.80649C5.52998 4.80649 5.67989 4.53356 5.75841 4.55034C7.07191 2.96757 9.28283 2.783 10.8003 4.12976H10.7901Z" fill="#EA4335"/>
<path d="M14.8881 5.37472C14.5485 4.00335 13.852 2.77069 12.8832 1.82886L10.811 4.10179C11.686 4.8859 12.1847 6.06823 12.1632 7.3076V7.71141C13.182 7.71141 14.008 8.61745 14.008 9.7349C14.008 10.8523 13.182 11.7584 12.1632 11.7584H8.47361L8.10547 12.1678V14.5951L8.47361 14.9989H12.1632C14.8127 15.0213 16.9777 12.6834 16.9981 9.7774C17.0103 8.0123 16.2179 6.3613 14.8881 5.37472Z" fill="#4285F4"/>
<path d="M4.77903 14.9732H8.46866V11.7338H4.77903C4.51593 11.7338 4.2569 11.6712 4.01725 11.5515L3.49919 11.7282L2.01233 13.3479L1.88281 13.9161C2.71599 14.6074 3.73374 14.9788 4.77903 14.9732Z" fill="#34A853"/>
<path d="M4.77943 4.46533C2.12898 4.48211 -0.0054496 6.85236 0.00984734 9.75952C0.0190255 11.3826 0.709427 12.9105 1.88321 13.8993L4.02274 11.5526C3.09473 11.0929 2.68171 9.89374 3.10085 8.87585C3.51998 7.85795 4.6132 7.40493 5.54122 7.86466C5.95016 8.06712 6.27751 8.4273 6.46311 8.87585L8.60264 6.52909C7.69299 5.2226 6.27751 4.45862 4.77943 4.46533Z" fill="#FBBC05"/>
</svg>
