<svg width="4" height="6" viewBox="0 0 4 6" fill="none" xmlns="http://www.w3.org/2000/svg">
<path d="M3.8 5.36053H0.199998C0.118516 5.36053 0.0518494 5.43159 0.0518494 5.51843V5.79474C0.0518494 5.88159 0.118516 5.95264 0.199998 5.95264H3.79259C3.87407 5.95264 3.94074 5.88159 3.94074 5.79474V5.51843C3.94815 5.43159 3.88148 5.36053 3.8 5.36053Z" fill="white"/>
<path d="M0.214795 2.7H1.16294V4.47632C1.16294 4.64211 1.28887 4.76843 1.44442 4.76843H2.55554C2.71109 4.76843 2.83702 4.63421 2.83702 4.47632V2.7H3.78517C3.94072 2.7 3.98517 2.59737 3.88887 2.46316L2.17035 0.14211C2.10368 0.0394782 1.97776 0.015794 1.88146 0.0868467C1.85924 0.102636 1.84442 0.118426 1.82961 0.14211L0.111091 2.46316C0.0147948 2.59737 0.0666466 2.7 0.214795 2.7ZM1.99998 0.868426L2.9185 2.1079H2.42961C2.34813 2.1079 2.28146 2.17895 2.28146 2.26579V4.17632H1.72591V2.26579C1.72591 2.17895 1.65924 2.1079 1.57776 2.1079H1.08887L1.99998 0.868426Z" fill="white"/>
</svg>
