<svg width="6" height="6" viewBox="0 0 6 6" fill="none" xmlns="http://www.w3.org/2000/svg">
<path d="M0.322192 3.24001H1.74441V5.37158C1.74441 5.57053 1.9333 5.72211 2.16664 5.72211H3.8333C4.06664 5.72211 4.25553 5.56106 4.25553 5.37158V3.24001H5.67775C5.91108 3.24001 5.97775 3.11685 5.8333 2.95579L3.25553 0.170532C3.15553 0.0473739 2.96664 0.0189528 2.82219 0.104216C2.78886 0.123163 2.76664 0.142111 2.74441 0.170532L0.166637 2.95579C0.0221922 3.11685 0.0999699 3.24001 0.322192 3.24001ZM2.99997 1.04211L4.37775 2.52948H3.64441C3.52219 2.52948 3.42219 2.61474 3.42219 2.71895V5.01158H2.58886V2.71895C2.58886 2.61474 2.48886 2.52948 2.36664 2.52948H1.6333L2.99997 1.04211Z" fill="#BFC0C1"/>
</svg>
