<svg width="10" height="10" viewBox="0 0 10 10" fill="none" xmlns="http://www.w3.org/2000/svg">
<path d="M7.66667 1C7.31304 1 6.97391 1.14048 6.72386 1.39052C6.47381 1.64057 6.33333 1.97971 6.33333 2.33333V7.66667C6.33333 8.02029 6.47381 8.35943 6.72386 8.60948C6.97391 8.85952 7.31304 9 7.66667 9C8.02029 9 8.35943 8.85952 8.60948 8.60948C8.85952 8.35943 9 8.02029 9 7.66667C9 7.31304 8.85952 6.97391 8.60948 6.72386C8.35943 6.47381 8.02029 6.33333 7.66667 6.33333H2.33333C1.97971 6.33333 1.64057 6.47381 1.39052 6.72386C1.14048 6.97391 1 7.31304 1 7.66667C1 8.02029 1.14048 8.35943 1.39052 8.60948C1.64057 8.85952 1.97971 9 2.33333 9C2.68696 9 3.02609 8.85952 3.27614 8.60948C3.52619 8.35943 3.66667 8.02029 3.66667 7.66667V2.33333C3.66667 1.97971 3.52619 1.64057 3.27614 1.39052C3.02609 1.14048 2.68696 1 2.33333 1C1.97971 1 1.64057 1.14048 1.39052 1.39052C1.14048 1.64057 1 1.97971 1 2.33333C1 2.68696 1.14048 3.02609 1.39052 3.27614C1.64057 3.52619 1.97971 3.66667 2.33333 3.66667H7.66667C8.02029 3.66667 8.35943 3.52619 8.60948 3.27614C8.85952 3.02609 9 2.68696 9 2.33333C9 1.97971 8.85952 1.64057 8.60948 1.39052C8.35943 1.14048 8.02029 1 7.66667 1Z" stroke="white" stroke-linecap="round" stroke-linejoin="round"/>
</svg>
